<svg width="19" height="14" viewBox="0 0 19 14" fill="none" xmlns="http://www.w3.org/2000/svg">
<path d="M16.206 3.45006C16.1432 3.38729 16.0796 3.32622 16.016 3.266L18.1229 1.15904C18.186 1.09599 18.236 1.02114 18.2701 0.938769C18.3042 0.856396 18.3218 0.768108 18.3218 0.678947C18.3218 0.589787 18.3042 0.501499 18.2701 0.419125C18.236 0.336752 18.186 0.261905 18.1229 0.198859C18.0599 0.135813 17.985 0.0858021 17.9026 0.0516818C17.8203 0.0175615 17.732 0 17.6428 0C17.5537 0 17.4654 0.0175615 17.383 0.0516818C17.3006 0.0858021 17.2258 0.135813 17.1627 0.198859L14.9574 2.40421C13.3608 1.28036 11.4554 0.678519 9.50294 0.681405C7.55049 0.684291 5.64685 1.29176 4.05361 2.42033L1.83723 0.198859C1.77419 0.135813 1.69934 0.0858021 1.61697 0.0516818C1.53459 0.0175615 1.4463 0 1.35714 0C1.17708 0 1.00438 0.0715317 0.877056 0.198859C0.81401 0.261905 0.763999 0.336752 0.729878 0.419125C0.695758 0.501499 0.678197 0.589787 0.678197 0.678947C0.678197 0.859015 0.749729 1.03171 0.877056 1.15904L3.00268 3.28466C2.0531 4.18433 1.29704 5.26828 0.780749 6.47018C0.264461 7.67208 -0.00120461 8.96668 4.10605e-06 10.2748V12.2146C4.10605e-06 12.5746 0.142988 12.9198 0.397501 13.1743C0.652014 13.4288 0.997208 13.5718 1.35714 13.5718H17.6428C18.0028 13.5718 18.348 13.4288 18.6025 13.1743C18.857 12.9198 19 12.5746 19 12.2146V10.1789C19.0034 8.92813 18.7582 7.68913 18.2786 6.53396C17.7989 5.37879 17.0944 4.3305 16.206 3.45006ZM6.44642 10.1789C6.24511 10.1789 6.04831 10.1192 5.88093 10.0074C5.71354 9.89554 5.58308 9.73658 5.50604 9.55059C5.429 9.3646 5.40885 9.15994 5.44812 8.9625C5.4874 8.76505 5.58434 8.58369 5.72669 8.44134C5.86904 8.29899 6.0504 8.20205 6.24784 8.16278C6.44529 8.1235 6.64995 8.14366 6.83593 8.2207C7.02192 8.29774 7.18089 8.4282 7.29273 8.59558C7.40458 8.76297 7.46427 8.95976 7.46427 9.16107C7.46427 9.43102 7.35704 9.68992 7.16615 9.8808C6.97527 10.0717 6.71637 10.1789 6.44642 10.1789ZM12.5535 10.1789C12.3522 10.1789 12.1554 10.1192 11.9881 10.0074C11.8207 9.89554 11.6902 9.73658 11.6132 9.55059C11.5361 9.3646 11.516 9.15994 11.5553 8.9625C11.5945 8.76505 11.6915 8.58369 11.8338 8.44134C11.9762 8.29899 12.1575 8.20205 12.355 8.16278C12.5524 8.1235 12.7571 8.14366 12.9431 8.2207C13.1291 8.29774 13.288 8.4282 13.3999 8.59558C13.5117 8.76297 13.5714 8.95976 13.5714 9.16107C13.5714 9.43102 13.4642 9.68992 13.2733 9.8808C13.0824 10.0717 12.8235 10.1789 12.5535 10.1789Z" fill="black"/>
</svg>
